<?xml version="1.0" standalone="no"?>
<!DOCTYPE svg PUBLIC "-//W3C//DTD SVG 20010904//EN"
 "http://www.w3.org/TR/2001/REC-SVG-20010904/DTD/svg10.dtd">
<svg version="1.0" xmlns="http://www.w3.org/2000/svg"
 width="1010.000000pt" height="726.000000pt" viewBox="0 0 1010.000000 726.000000"
 preserveAspectRatio="xMidYMid meet">
<metadata>
Created by potrace 1.16, written by Peter Selinger 2001-2019
</metadata>
<g transform="translate(0.000000,726.000000) scale(0.100000,-0.100000)"
fill="#000000" stroke="none">
<path d="M4952 5925 c-113 -32 -182 -75 -287 -180 -147 -147 -235 -306 -293
-531 l-29 -109 -44 -2 c-223 -12 -517 -65 -687 -125 -69 -24 -220 -93 -367
-168 -326 -167 -454 -210 -754 -250 -310 -42 -385 -79 -398 -194 -9 -77 38
-158 166 -287 58 -58 129 -124 156 -146 178 -142 376 -253 432 -241 12 3 0 13
-37 32 -64 33 -137 84 -200 140 -106 93 -323 301 -346 331 l-25 33 35 83 34
84 44 7 c402 62 598 105 756 168 42 17 149 68 237 114 88 46 199 99 246 119
172 74 400 118 674 132 184 9 171 2 200 103 125 422 179 538 307 658 129 122
309 164 443 105 67 -30 124 -79 183 -158 99 -135 132 -230 148 -433 6 -85 8
-91 17 -60 5 19 7 85 4 145 -15 290 -161 541 -360 617 -69 26 -186 32 -255 13z"/>
<path d="M9335 5515 c-52 -51 -20 -135 51 -135 47 0 70 14 82 49 21 61 -10
111 -70 111 -28 0 -46 -7 -63 -25z"/>
<path d="M6945 5262 c-49 -31 -58 -47 -53 -101 4 -37 20 -73 71 -157 37 -60
69 -123 73 -140 3 -17 -1 -59 -10 -95 -20 -77 -97 -241 -135 -289 -16 -20 -44
-70 -64 -113 -20 -42 -45 -91 -57 -107 -26 -36 -1 -48 -270 124 -227 144 -351
214 -513 287 -105 47 -236 93 -244 85 -2 -2 123 -88 279 -192 414 -276 620
-435 634 -488 13 -51 -197 -345 -307 -430 -57 -45 -227 -134 -361 -190 -58
-24 -123 -55 -145 -69 -22 -14 -82 -49 -134 -78 -111 -61 -184 -116 -270 -201
-186 -186 -336 -438 -394 -664 -15 -54 -28 -100 -30 -102 -2 -3 -6 6 -9 19 -3
13 -14 70 -26 126 -42 204 -85 316 -187 486 -80 135 -134 205 -214 283 -128
122 -265 200 -437 246 -119 32 -328 35 -579 9 -389 -40 -496 -25 -707 103 -50
31 -107 58 -126 61 -35 6 -35 6 33 -58 87 -82 169 -130 286 -168 148 -47 219
-53 521 -38 301 14 421 6 550 -37 161 -54 308 -160 417 -302 37 -48 85 -107
108 -132 24 -27 55 -78 74 -125 19 -44 44 -102 58 -128 77 -154 168 -460 209
-708 56 -342 81 -429 176 -622 63 -126 105 -188 204 -296 84 -91 84 -92 17
-74 -157 41 -579 236 -951 440 -199 109 -474 268 -767 446 -384 233 -417 252
-515 310 -157 91 -499 261 -770 382 -199 88 -285 121 -392 149 -185 47 -419
92 -557 107 -147 15 -528 6 -669 -16 -105 -16 -262 -58 -291 -76 -27 -17 159
-1 261 22 221 52 700 10 1003 -88 189 -61 508 -201 728 -319 309 -166 471
-267 1162 -729 506 -338 718 -472 980 -619 488 -275 909 -439 1300 -508 112
-20 163 -23 370 -22 221 0 250 2 373 27 414 86 732 282 978 602 137 179 252
444 296 685 31 167 31 498 0 693 -38 240 -28 356 50 552 43 108 61 143 178
340 43 72 115 195 160 275 192 337 230 370 432 370 135 1 183 10 217 44 20 20
25 35 25 69 -2 87 -32 108 -186 127 -182 23 -331 -20 -451 -130 -102 -93 -141
-152 -367 -550 -307 -543 -363 -739 -325 -1150 28 -307 29 -400 6 -536 -67
-397 -295 -702 -655 -878 -250 -123 -588 -189 -806 -157 -224 33 -458 163
-634 352 -139 149 -250 338 -291 494 -28 107 -39 303 -25 458 15 180 45 298
108 424 141 281 310 433 667 603 279 132 309 149 515 296 105 74 206 183 343
367 42 56 121 228 157 342 18 56 63 156 101 228 74 136 123 267 134 357 16
134 -50 304 -172 443 -61 69 -103 82 -158 49z"/>
<path d="M4940 5179 c-25 -5 -83 -27 -130 -50 -70 -35 -101 -59 -180 -138 -85
-86 -196 -234 -214 -286 -7 -20 9 -6 159 136 97 93 190 152 290 184 168 55
325 19 433 -99 78 -86 126 -200 138 -329 20 -226 -117 -434 -348 -529 -42 -17
-73 -21 -148 -21 -87 0 -109 5 -254 52 -87 29 -161 50 -163 47 -6 -6 105 -88
162 -121 344 -197 765 -19 866 368 24 88 25 239 3 345 -45 221 -205 402 -392
441 -61 13 -157 13 -222 0z"/>
<path d="M8453 4949 c-82 -15 -127 -67 -125 -146 1 -110 115 -176 219 -126 47
22 73 66 73 126 0 104 -68 164 -167 146z"/>
<path d="M7466 4715 c-101 -35 -127 -137 -50 -204 29 -26 43 -31 85 -31 42 0
55 5 79 29 93 92 7 247 -114 206z"/>
<path d="M3554 4554 c-17 -8 -44 -28 -59 -44 l-28 -29 26 -40 c15 -22 38 -48
52 -57 36 -23 103 -34 161 -26 41 6 50 11 52 30 8 54 -42 138 -99 167 -36 19
-66 19 -105 -1z"/>
<path d="M9533 4244 c-85 -42 -60 -168 37 -189 98 -22 163 133 77 185 -38 24
-71 25 -114 4z"/>
<path d="M7375 3819 c-56 -28 -92 -65 -123 -129 -61 -125 -12 -277 112 -343
33 -17 58 -22 126 -22 75 0 91 3 131 27 91 53 132 125 131 228 -1 109 -53 193
-147 236 -66 31 -171 32 -230 3z"/>
<path d="M6925 2945 c-138 -37 -225 -101 -284 -207 -95 -171 -68 -367 70 -513
29 -30 50 -57 47 -60 -12 -13 -252 -95 -276 -95 -15 0 -67 12 -117 25 -259 72
-548 91 -745 48 -109 -23 -238 -74 -281 -110 -27 -23 -29 -29 -29 -101 1 -222
128 -483 342 -700 98 -99 146 -131 307 -208 393 -185 884 -119 1237 167 124
101 222 228 294 384 74 160 119 465 89 604 -9 41 -16 52 -43 65 -18 8 -59 18
-90 22 -32 4 -60 12 -62 19 -3 6 7 38 22 71 33 72 44 198 24 272 -43 161 -175
286 -338 321 -67 14 -104 13 -167 -4z"/>
</g>
</svg>
