<?xml version="1.0" standalone="no"?>
<!DOCTYPE svg PUBLIC "-//W3C//DTD SVG 20010904//EN"
 "http://www.w3.org/TR/2001/REC-SVG-20010904/DTD/svg10.dtd">
<svg version="1.0" xmlns="http://www.w3.org/2000/svg"
 width="1280.000000pt" height="1164.000000pt" viewBox="0 0 1280.000000 1164.000000"
 preserveAspectRatio="xMidYMid meet">
<metadata>
Created by potrace 1.16, written by Peter Selinger 2001-2019
</metadata>
<g transform="translate(0.000000,1164.000000) scale(0.100000,-0.100000)"
fill="#000000" stroke="none">
<path d="M5982 10305 c-113 -32 -182 -75 -287 -180 -147 -147 -235 -306 -293
-531 l-29 -109 -44 -2 c-223 -12 -517 -65 -687 -125 -69 -24 -220 -93 -367
-168 -326 -167 -454 -210 -754 -250 -310 -42 -385 -79 -398 -194 -9 -77 38
-158 166 -287 58 -58 129 -124 156 -146 178 -142 376 -253 432 -241 12 3 0 13
-37 32 -64 33 -137 84 -200 140 -106 93 -323 301 -346 331 l-25 33 35 83 34
84 44 7 c402 62 598 105 756 168 42 17 149 68 237 114 88 46 199 99 246 119
172 74 400 118 674 132 184 9 171 2 200 103 125 422 179 538 307 658 129 122
309 164 443 105 67 -30 124 -79 183 -158 99 -135 132 -230 148 -433 6 -85 8
-91 17 -60 5 19 7 85 4 145 -15 290 -161 541 -360 617 -69 26 -186 32 -255 13z"/>
<path d="M10365 9895 c-52 -51 -20 -135 51 -135 47 0 70 14 82 49 21 61 -10
111 -70 111 -28 0 -46 -7 -63 -25z"/>
<path d="M7975 9642 c-49 -31 -58 -47 -53 -101 4 -37 20 -73 71 -157 37 -60
69 -123 73 -140 3 -17 -1 -59 -10 -95 -20 -77 -97 -241 -135 -289 -16 -20 -44
-70 -64 -113 -20 -42 -45 -91 -57 -107 -26 -36 -1 -48 -270 124 -227 144 -351
214 -513 287 -105 47 -236 93 -244 85 -2 -2 123 -88 279 -192 414 -276 620
-435 634 -488 13 -51 -197 -345 -307 -430 -57 -45 -227 -134 -361 -190 -58
-24 -123 -55 -145 -69 -22 -14 -82 -49 -134 -78 -111 -61 -184 -116 -270 -201
-186 -186 -336 -438 -394 -664 -15 -54 -28 -100 -30 -102 -2 -3 -6 6 -9 19 -3
13 -14 70 -26 126 -42 204 -85 316 -187 486 -80 135 -134 205 -214 283 -128
122 -265 200 -437 246 -119 32 -328 35 -579 9 -389 -40 -496 -25 -707 103 -50
31 -107 58 -126 61 -35 6 -35 6 33 -58 87 -82 169 -130 286 -168 148 -47 219
-53 521 -38 301 14 421 6 550 -37 161 -54 308 -160 417 -302 37 -48 85 -107
108 -132 24 -27 55 -78 74 -125 19 -44 44 -102 58 -128 77 -154 168 -460 209
-708 56 -342 81 -429 176 -622 63 -126 105 -188 204 -296 84 -91 84 -92 17
-74 -157 41 -579 236 -951 440 -199 109 -474 268 -767 446 -384 233 -417 252
-515 310 -157 91 -499 261 -770 382 -199 88 -285 121 -392 149 -185 47 -419
92 -557 107 -147 15 -528 6 -669 -16 -105 -16 -262 -58 -291 -76 -27 -17 159
-1 261 22 221 52 700 10 1003 -88 189 -61 508 -201 728 -319 309 -166 471
-267 1162 -729 506 -338 718 -472 980 -619 488 -275 909 -439 1300 -508 112
-20 163 -23 370 -22 221 0 250 2 373 27 414 86 732 282 978 602 137 179 252
444 296 685 31 167 31 498 0 693 -38 240 -28 356 50 552 43 108 61 143 178
340 43 72 115 195 160 275 192 337 230 370 432 370 135 1 183 10 217 44 20 20
25 35 25 69 -2 87 -32 108 -186 127 -182 23 -331 -20 -451 -130 -102 -93 -141
-152 -367 -550 -307 -543 -363 -739 -325 -1150 28 -307 29 -400 6 -536 -67
-397 -295 -702 -655 -878 -250 -123 -588 -189 -806 -157 -224 33 -458 163
-634 352 -139 149 -250 338 -291 494 -28 107 -39 303 -25 458 15 180 45 298
108 424 141 281 310 433 667 603 279 132 309 149 515 296 105 74 206 183 343
367 42 56 121 228 157 342 18 56 63 156 101 228 74 136 123 267 134 357 16
134 -50 304 -172 443 -61 69 -103 82 -158 49z"/>
<path d="M5970 9559 c-25 -5 -83 -27 -130 -50 -70 -35 -101 -59 -180 -138 -85
-86 -196 -234 -214 -286 -7 -20 9 -6 159 136 97 93 190 152 290 184 168 55
325 19 433 -99 78 -86 126 -200 138 -329 20 -226 -117 -434 -348 -529 -42 -17
-73 -21 -148 -21 -87 0 -109 5 -254 52 -87 29 -161 50 -163 47 -6 -6 105 -88
162 -121 344 -197 765 -19 866 368 24 88 25 239 3 345 -45 221 -205 402 -392
441 -61 13 -157 13 -222 0z"/>
<path d="M9483 9329 c-82 -15 -127 -67 -125 -146 1 -110 115 -176 219 -126 47
22 73 66 73 126 0 104 -68 164 -167 146z"/>
<path d="M8496 9095 c-101 -35 -127 -137 -50 -204 29 -26 43 -31 85 -31 42 0
55 5 79 29 93 92 7 247 -114 206z"/>
<path d="M4584 8934 c-17 -8 -44 -28 -59 -44 l-28 -29 26 -40 c15 -22 38 -48
52 -57 36 -23 103 -34 161 -26 41 6 50 11 52 30 8 54 -42 138 -99 167 -36 19
-66 19 -105 -1z"/>
<path d="M10563 8624 c-85 -42 -60 -168 37 -189 98 -22 163 133 77 185 -38 24
-71 25 -114 4z"/>
<path d="M8405 8199 c-56 -28 -92 -65 -123 -129 -61 -125 -12 -277 112 -343
33 -17 58 -22 126 -22 75 0 91 3 131 27 91 53 132 125 131 228 -1 109 -53 193
-147 236 -66 31 -171 32 -230 3z"/>
<path d="M7955 7325 c-138 -37 -225 -101 -284 -207 -95 -171 -68 -367 70 -513
29 -30 50 -57 47 -60 -12 -13 -252 -95 -276 -95 -15 0 -67 12 -117 25 -259 72
-548 91 -745 48 -109 -23 -238 -74 -281 -110 -27 -23 -29 -29 -29 -101 1 -222
128 -483 342 -700 98 -99 146 -131 307 -208 393 -185 884 -119 1237 167 124
101 222 228 294 384 74 160 119 465 89 604 -9 41 -16 52 -43 65 -18 8 -59 18
-90 22 -32 4 -60 12 -62 19 -3 6 7 38 22 71 33 72 44 198 24 272 -43 161 -175
286 -338 321 -67 14 -104 13 -167 -4z"/>
<path d="M3979 4143 c-81 -78 -92 -101 -69 -144 7 -13 21 -19 43 -19 27 0 45
12 105 73 59 59 72 78 72 104 0 32 -29 63 -58 63 -8 0 -50 -35 -93 -77z"/>
<path d="M860 3910 c-19 -19 -20 -33 -20 -463 0 -425 1 -445 19 -461 17 -16
39 -17 188 -14 165 3 169 4 221 33 189 104 208 358 37 493 l-27 21 26 53 c66
133 -1 294 -143 343 -30 10 -83 15 -163 15 -105 0 -120 -2 -138 -20z m263
-114 c75 -32 107 -112 68 -173 -31 -50 -60 -63 -150 -69 l-81 -5 0 131 0 130
65 0 c36 0 80 -6 98 -14z m81 -380 c18 -8 46 -31 62 -52 25 -32 29 -47 29 -99
0 -49 -5 -69 -25 -98 -40 -59 -88 -77 -208 -77 l-102 0 0 170 0 170 105 0 c68
0 118 -5 139 -14z"/>
<path d="M1582 3914 l-22 -15 0 -448 c0 -421 1 -449 18 -464 25 -23 58 -21 82
3 19 19 20 33 20 454 0 423 0 434 -21 460 -23 30 -45 33 -77 10z"/>
<path d="M2191 3919 c-165 -32 -327 -185 -371 -347 -20 -76 -14 -203 14 -282
86 -247 358 -378 611 -295 112 37 242 161 287 275 19 47 23 74 23 181 0 125 0
125 -38 202 -98 199 -314 308 -526 266z m154 -120 c33 -6 77 -20 99 -31 60
-31 133 -105 163 -167 25 -50 28 -67 28 -156 -1 -90 -4 -106 -28 -153 -37 -71
-100 -132 -173 -168 -52 -25 -70 -29 -149 -29 -79 0 -97 4 -149 29 -76 37
-140 101 -174 174 -23 49 -27 70 -27 152 0 112 18 162 86 235 54 58 118 96
189 111 71 16 67 16 135 3z"/>
<path d="M2820 3910 c-25 -25 -26 -62 -2 -83 15 -14 42 -17 150 -17 l132 0 0
-400 c0 -387 1 -401 20 -420 21 -21 55 -26 80 -10 13 8 16 69 20 417 l5 408
140 5 c139 5 139 5 154 32 14 25 14 29 -5 55 l-21 28 -326 3 c-316 2 -327 2
-347 -18z"/>
<path d="M3640 3910 c-19 -19 -20 -33 -20 -460 0 -428 1 -441 20 -460 20 -20
31 -20 327 -18 l307 3 16 28 c13 24 13 30 0 55 l-16 27 -267 3 -267 2 0 150 0
150 193 0 c175 0 196 2 210 18 24 26 21 68 -5 86 -18 13 -56 16 -210 16 l-189
0 3 148 3 147 259 3 c224 2 262 5 278 19 24 21 23 58 -2 83 -19 19 -33 20
-320 20 -287 0 -301 -1 -320 -20z"/>
<path d="M4411 3911 c-21 -21 -21 -28 -21 -461 0 -427 1 -441 20 -460 25 -25
62 -26 83 -2 14 16 17 44 17 185 l0 167 94 0 94 0 104 -166 c118 -190 130
-204 163 -204 27 0 65 31 65 53 0 14 -31 66 -143 247 l-65 104 27 17 c50 30
98 97 116 161 39 140 -24 282 -153 345 -54 27 -65 28 -219 31 -153 4 -162 3
-182 -17z m346 -124 c68 -36 95 -82 94 -161 0 -35 -7 -59 -25 -87 -41 -61 -74
-73 -201 -73 l-110 -1 -3 160 c-1 87 0 166 3 173 8 21 198 12 242 -11z"/>
<path d="M5182 3914 l-22 -15 0 -448 c0 -421 1 -449 18 -464 25 -23 58 -21 82
3 19 19 20 33 20 460 0 427 -1 441 -20 460 -24 24 -48 25 -78 4z"/>
<path d="M5791 3919 c-112 -22 -242 -113 -311 -218 -88 -133 -93 -326 -13
-485 32 -62 122 -153 189 -188 149 -80 348 -75 481 11 265 171 307 529 87 746
-117 116 -275 165 -433 134z m154 -120 c113 -21 211 -93 263 -194 37 -72 43
-206 12 -288 -28 -75 -108 -158 -187 -195 -49 -23 -71 -27 -148 -27 -78 0 -97
4 -145 27 -73 36 -146 109 -178 178 -21 46 -26 70 -26 145 -1 77 3 98 26 147
57 123 172 202 314 217 6 1 37 -4 69 -10z"/>
<path d="M7210 3919 c-79 -15 -185 -76 -246 -141 -107 -116 -149 -252 -126
-405 30 -193 182 -355 370 -394 70 -14 190 -7 257 16 59 21 153 79 161 100 10
26 -6 65 -32 77 -21 10 -35 6 -111 -33 -83 -43 -88 -44 -178 -44 -118 1 -179
29 -259 117 -69 76 -91 134 -91 243 0 71 4 89 33 147 53 107 150 179 269 198
78 13 152 -3 242 -51 77 -42 79 -42 105 -26 19 13 26 26 26 51 0 27 -7 38 -42
62 -113 80 -245 109 -378 83z"/>
<path d="M7740 3910 c-19 -19 -20 -33 -20 -460 0 -427 1 -441 20 -460 19 -19
33 -20 323 -20 282 0 305 1 320 18 22 24 21 65 -1 85 -16 15 -51 17 -280 17
l-262 0 0 150 0 150 193 0 c175 0 196 2 210 18 24 26 21 68 -5 86 -18 13 -56
16 -210 16 l-189 0 3 148 3 147 268 5 c223 4 269 7 277 20 16 25 11 59 -10 80
-19 19 -33 20 -320 20 -287 0 -301 -1 -320 -20z"/>
<path d="M8510 3903 c-20 -26 -21 -32 -18 -466 3 -421 4 -439 22 -453 28 -20
60 -17 82 7 18 20 19 45 24 353 l5 331 268 -345 c148 -190 277 -349 287 -354
29 -13 70 2 80 30 6 15 10 201 10 448 0 413 0 424 -21 450 -25 31 -59 34 -85
5 -18 -20 -19 -45 -24 -355 l-5 -333 -55 71 c-30 39 -67 85 -81 102 -14 17
-110 140 -213 273 -218 283 -231 293 -276 236z"/>
<path d="M9386 3915 c-25 -25 -29 -54 -12 -80 16 -24 19 -25 151 -25 l135 0 0
-391 c0 -387 3 -420 34 -441 33 -22 87 3 92 43 1 13 3 196 3 407 l1 382 133 0
c117 0 136 2 150 18 23 25 21 57 -5 82 -21 19 -34 20 -344 20 -274 0 -325 -2
-338 -15z"/>
<path d="M10201 3911 c-21 -21 -21 -28 -21 -461 0 -427 1 -441 20 -460 25 -25
62 -26 83 -2 14 16 17 44 17 185 l0 167 94 0 94 0 111 -179 c61 -98 118 -182
127 -185 43 -17 84 10 84 55 0 13 -45 96 -100 183 l-99 159 40 29 c77 56 128
172 115 264 -13 98 -80 189 -172 235 -45 22 -64 24 -211 27 -153 4 -162 3
-182 -17z m303 -111 c119 -27 172 -151 111 -257 -38 -64 -70 -76 -200 -77
l-110 -1 -3 160 c-1 87 0 165 2 172 6 15 139 18 200 3z"/>
<path d="M11258 3920 c-9 -6 -25 -34 -36 -63 -11 -28 -36 -92 -55 -142 -19
-49 -85 -219 -146 -376 -61 -157 -111 -297 -111 -312 0 -47 45 -71 89 -47 11
5 42 70 76 160 l58 150 158 0 157 0 56 -142 c61 -153 76 -178 113 -178 26 0
63 32 63 55 0 8 -24 77 -54 152 -30 76 -102 261 -160 411 -58 149 -112 285
-120 301 -21 40 -53 51 -88 31z m96 -384 c19 -50 36 -97 38 -104 2 -11 -18
-14 -95 -14 -54 0 -101 2 -103 5 -5 5 78 236 93 261 6 10 18 -16 67 -148z"/>
<path d="M11792 3907 c-22 -23 -22 -25 -22 -460 0 -424 1 -438 20 -457 19 -19
33 -20 298 -20 286 0 308 3 312 40 4 30 0 49 -16 64 -13 14 -51 16 -255 16
l-239 0 0 404 0 405 -22 15 c-31 22 -51 20 -76 -7z"/>
<path d="M3472 2534 l-22 -15 0 -378 c0 -280 3 -380 12 -389 15 -15 61 -15 76
0 9 9 12 109 12 389 l0 378 -22 15 c-12 9 -25 16 -28 16 -3 0 -16 -7 -28 -16z"/>
<path d="M3682 2534 l-22 -15 0 -378 c0 -280 3 -380 12 -389 16 -16 65 -15 75
1 4 6 10 140 13 297 l5 285 40 -51 c22 -28 75 -95 117 -150 298 -383 304 -389
332 -392 57 -7 56 -13 56 399 l0 379 -25 16 c-23 15 -27 15 -50 0 l-25 -16 -2
-291 -3 -290 -220 283 c-221 285 -257 328 -272 328 -5 0 -19 -7 -31 -16z"/>
<path d="M4413 2535 l-23 -16 0 -378 c0 -316 2 -381 14 -390 20 -17 261 -16
315 0 96 29 164 125 164 232 -1 77 -20 122 -77 179 l-44 45 21 34 c17 25 22
49 22 94 -1 88 -42 152 -123 191 -53 26 -238 32 -269 9z m258 -124 c23 -23 29
-38 29 -71 0 -80 -39 -110 -145 -110 l-65 0 0 105 0 105 76 0 c70 0 78 -2 105
-29z m29 -300 c73 -38 103 -134 63 -201 -30 -51 -79 -70 -182 -70 l-91 0 0
145 0 145 88 0 c66 0 96 -5 122 -19z"/>
<path d="M5022 2534 l-22 -15 0 -378 c0 -280 3 -380 12 -389 15 -15 61 -15 76
0 9 9 12 109 12 389 l0 378 -22 15 c-12 9 -25 16 -28 16 -3 0 -16 -7 -28 -16z"/>
<path d="M5530 2536 c-122 -26 -247 -132 -292 -245 -31 -80 -31 -224 0 -302
32 -81 117 -170 200 -211 120 -59 293 -49 398 22 108 75 172 186 181 316 15
207 -134 390 -344 424 -69 12 -73 12 -143 -4z m229 -131 c210 -115 210 -414 0
-530 -49 -27 -63 -30 -144 -30 -99 0 -140 15 -209 76 -90 79 -118 237 -63 351
31 63 86 114 158 148 67 31 185 24 258 -15z"/>
<path d="M7151 2533 c-22 -18 -22 -21 -19 -308 3 -329 3 -326 85 -408 60 -60
120 -81 217 -75 108 7 184 57 234 152 l27 51 3 287 3 287 -25 17 c-24 15 -28
15 -50 0 l-25 -16 -3 -278 -3 -279 -29 -41 c-66 -95 -214 -109 -287 -26 -47
53 -49 69 -49 349 0 252 -1 266 -20 285 -24 24 -32 25 -59 3z"/>
<path d="M7802 2534 l-22 -15 0 -379 0 -380 25 -16 c23 -15 27 -15 50 0 25 16
25 17 25 181 l0 165 165 0 c164 0 165 0 181 25 15 23 15 27 0 50 -16 25 -17
25 -181 25 l-165 0 0 125 0 125 219 0 c186 0 222 2 235 16 21 21 20 57 -2 77
-27 25 -496 25 -530 1z"/>
<path d="M8450 2523 c-21 -27 -21 -33 -18 -395 3 -401 1 -388 60 -388 17 0 31
7 38 19 6 12 10 115 10 263 l1 243 132 -260 132 -260 35 0 35 0 132 260 132
260 1 -246 c0 -251 3 -274 40 -280 27 -5 60 12 65 34 3 12 4 184 3 381 l-3
359 -26 19 c-20 15 -31 18 -45 10 -11 -6 -88 -148 -174 -321 -85 -171 -157
-311 -160 -311 -3 0 -75 140 -160 311 -172 345 -184 360 -230 302z"/>
<path d="M9533 2540 c-51 -12 -96 -43 -128 -89 -27 -38 -30 -51 -30 -115 0
-63 4 -78 27 -112 37 -52 83 -82 147 -94 29 -5 66 -19 82 -31 83 -59 78 -188
-10 -237 -69 -39 -135 -26 -195 37 -34 35 -56 39 -79 13 -26 -28 -20 -53 20
-96 49 -51 109 -77 182 -77 142 -1 242 101 242 246 0 124 -71 207 -207 242
-58 16 -72 24 -92 53 -47 70 3 160 89 160 34 0 47 -6 73 -33 17 -18 38 -36 47
-39 26 -10 59 19 59 52 0 38 -74 104 -135 119 -48 12 -47 12 -92 1z"/>
<path d="M6425 2050 c-15 -16 -17 -26 -9 -48 l9 -27 144 -3 c97 -2 148 1 157
9 21 17 18 66 -5 79 -11 5 -78 10 -149 10 -117 0 -131 -2 -147 -20z"/>
</g>
</svg>
