<?xml version="1.0" standalone="no"?>
<!DOCTYPE svg PUBLIC "-//W3C//DTD SVG 20010904//EN"
 "http://www.w3.org/TR/2001/REC-SVG-20010904/DTD/svg10.dtd">
<svg version="1.0" xmlns="http://www.w3.org/2000/svg"
 width="2214.000000pt" height="748.000000pt" viewBox="0 0 2214.000000 748.000000"
 preserveAspectRatio="xMidYMid meet">
<metadata>
Created by potrace 1.16, written by Peter Selinger 2001-2019
</metadata>
<g transform="translate(0.000000,748.000000) scale(0.100000,-0.100000)"
fill="#000000" stroke="none">
<path d="M5102 6035 c-113 -32 -182 -75 -287 -180 -147 -147 -235 -306 -293
-531 l-29 -109 -44 -2 c-223 -12 -517 -65 -687 -125 -69 -24 -220 -93 -367
-168 -326 -167 -454 -210 -754 -250 -310 -42 -385 -79 -398 -194 -9 -77 38
-158 166 -287 58 -58 129 -124 156 -146 178 -142 376 -253 432 -241 12 3 0 13
-37 32 -64 33 -137 84 -200 140 -106 93 -323 301 -346 331 l-25 33 35 83 34
84 44 7 c402 62 598 105 756 168 42 17 149 68 237 114 88 46 199 99 246 119
172 74 400 118 674 132 184 9 171 2 200 103 125 422 179 538 307 658 129 122
309 164 443 105 67 -30 124 -79 183 -158 99 -135 132 -230 148 -433 6 -85 8
-91 17 -60 5 19 7 85 4 145 -15 290 -161 541 -360 617 -69 26 -186 32 -255 13z"/>
<path d="M9485 5625 c-52 -51 -20 -135 51 -135 47 0 70 14 82 49 21 61 -10
111 -70 111 -28 0 -46 -7 -63 -25z"/>
<path d="M7095 5372 c-49 -31 -58 -47 -53 -101 4 -37 20 -73 71 -157 37 -60
69 -123 73 -140 3 -17 -1 -59 -10 -95 -20 -77 -97 -241 -135 -289 -16 -20 -44
-70 -64 -113 -20 -42 -45 -91 -57 -107 -26 -36 -1 -48 -270 124 -227 144 -351
214 -513 287 -105 47 -236 93 -244 85 -2 -2 123 -88 279 -192 414 -276 620
-435 634 -488 13 -51 -197 -345 -307 -430 -57 -45 -227 -134 -361 -190 -58
-24 -123 -55 -145 -69 -22 -14 -82 -49 -134 -78 -111 -61 -184 -116 -270 -201
-186 -186 -336 -438 -394 -664 -15 -54 -28 -100 -30 -102 -2 -3 -6 6 -9 19 -3
13 -14 70 -26 126 -42 204 -85 316 -187 486 -80 135 -134 205 -214 283 -128
122 -265 200 -437 246 -119 32 -328 35 -579 9 -389 -40 -496 -25 -707 103 -50
31 -107 58 -126 61 -35 6 -35 6 33 -58 87 -82 169 -130 286 -168 148 -47 219
-53 521 -38 301 14 421 6 550 -37 161 -54 308 -160 417 -302 37 -48 85 -107
108 -132 24 -27 55 -78 74 -125 19 -44 44 -102 58 -128 77 -154 168 -460 209
-708 56 -342 81 -429 176 -622 63 -126 105 -188 204 -296 84 -91 84 -92 17
-74 -157 41 -579 236 -951 440 -199 109 -474 268 -767 446 -384 233 -417 252
-515 310 -157 91 -499 261 -770 382 -199 88 -285 121 -392 149 -185 47 -419
92 -557 107 -147 15 -528 6 -669 -16 -105 -16 -262 -58 -291 -76 -27 -17 159
-1 261 22 221 52 700 10 1003 -88 189 -61 508 -201 728 -319 309 -166 471
-267 1162 -729 506 -338 718 -472 980 -619 488 -275 909 -439 1300 -508 112
-20 163 -23 370 -22 221 0 250 2 373 27 414 86 732 282 978 602 137 179 252
444 296 685 31 167 31 498 0 693 -38 240 -28 356 50 552 43 108 61 143 178
340 43 72 115 195 160 275 192 337 230 370 432 370 135 1 183 10 217 44 20 20
25 35 25 69 -2 87 -32 108 -186 127 -182 23 -331 -20 -451 -130 -102 -93 -141
-152 -367 -550 -307 -543 -363 -739 -325 -1150 28 -307 29 -400 6 -536 -67
-397 -295 -702 -655 -878 -250 -123 -588 -189 -806 -157 -224 33 -458 163
-634 352 -139 149 -250 338 -291 494 -28 107 -39 303 -25 458 15 180 45 298
108 424 141 281 310 433 667 603 279 132 309 149 515 296 105 74 206 183 343
367 42 56 121 228 157 342 18 56 63 156 101 228 74 136 123 267 134 357 16
134 -50 304 -172 443 -61 69 -103 82 -158 49z"/>
<path d="M5090 5289 c-25 -5 -83 -27 -130 -50 -70 -35 -101 -59 -180 -138 -85
-86 -196 -234 -214 -286 -7 -20 9 -6 159 136 97 93 190 152 290 184 168 55
325 19 433 -99 78 -86 126 -200 138 -329 20 -226 -117 -434 -348 -529 -42 -17
-73 -21 -148 -21 -87 0 -109 5 -254 52 -87 29 -161 50 -163 47 -6 -6 105 -88
162 -121 344 -197 765 -19 866 368 24 88 25 239 3 345 -45 221 -205 402 -392
441 -61 13 -157 13 -222 0z"/>
<path d="M8603 5059 c-82 -15 -127 -67 -125 -146 1 -110 115 -176 219 -126 47
22 73 66 73 126 0 104 -68 164 -167 146z"/>
<path d="M7616 4825 c-101 -35 -127 -137 -50 -204 29 -26 43 -31 85 -31 42 0
55 5 79 29 93 92 7 247 -114 206z"/>
<path d="M3704 4664 c-17 -8 -44 -28 -59 -44 l-28 -29 26 -40 c15 -22 38 -48
52 -57 36 -23 103 -34 161 -26 41 6 50 11 52 30 8 54 -42 138 -99 167 -36 19
-66 19 -105 -1z"/>
<path d="M13338 4421 c-63 -62 -78 -82 -78 -106 1 -40 19 -62 50 -61 29 1 162
135 167 167 3 22 -35 78 -52 78 -5 0 -45 -35 -87 -78z"/>
<path d="M9683 4354 c-85 -42 -60 -168 37 -189 98 -22 163 133 77 185 -38 24
-71 25 -114 4z"/>
<path d="M11027 4191 c-15 -26 -17 -68 -17 -445 0 -403 1 -417 20 -436 27 -27
54 -25 85 5 l25 26 0 412 0 412 -35 23 c-18 13 -38 21 -44 18 -5 -3 -11 -1
-13 4 -2 6 -11 -2 -21 -19z"/>
<path d="M11702 4210 c-19 -4 -48 -7 -65 -6 -18 2 -34 -1 -37 -5 -3 -5 -17
-10 -30 -11 -14 -2 -27 -5 -30 -9 -7 -7 -74 -38 -80 -36 -3 1 -33 -27 -68 -63
-64 -67 -122 -164 -122 -206 0 -13 -4 -24 -8 -24 -5 0 -9 -15 -9 -32 0 -18 -1
-49 -1 -68 -1 -83 0 -100 8 -100 4 0 11 -17 15 -37 15 -81 92 -186 177 -243
21 -14 38 -28 38 -32 0 -5 9 -8 20 -8 11 0 20 -5 20 -11 0 -5 5 -7 10 -4 6 4
21 0 33 -8 25 -16 247 -20 258 -4 4 5 18 10 33 10 14 1 26 5 26 10 0 4 7 7 15
7 8 0 15 3 15 8 0 9 71 48 82 45 4 -2 8 2 8 8 0 16 36 59 44 52 3 -3 6 1 6 10
0 9 4 17 8 17 12 0 82 137 82 159 0 10 3 20 6 23 8 9 10 187 2 191 -3 1 -8 16
-11 32 -6 42 -15 63 -54 118 -18 26 -33 54 -33 62 0 8 -7 15 -15 15 -9 0 -18
7 -21 15 -4 8 -12 15 -20 15 -7 0 -17 6 -21 13 -4 7 -29 24 -55 37 -27 14 -48
27 -48 30 0 3 -12 6 -26 7 -15 0 -30 6 -34 13 -4 7 -16 9 -29 5 -12 -4 -21 -2
-21 4 0 12 -20 13 -68 1z m66 -126 c24 0 48 -7 52 -14 4 -7 13 -9 19 -6 6 4
11 2 11 -4 0 -6 5 -8 10 -5 6 3 10 -1 10 -9 0 -9 6 -13 15 -10 37 15 164 -159
152 -208 -3 -10 -2 -18 2 -18 4 0 7 -36 6 -80 -2 -63 -8 -91 -29 -133 -27 -57
-109 -142 -126 -132 -6 3 -10 0 -10 -8 0 -18 -30 -32 -30 -14 0 7 -5 4 -11 -6
-6 -9 -15 -14 -21 -11 -6 4 -14 0 -19 -7 -6 -11 -11 -11 -20 -2 -9 9 -15 8
-26 -3 -21 -20 -80 -18 -92 4 -8 13 -12 14 -19 4 -10 -15 -62 -6 -62 10 0 5
-4 7 -9 3 -5 -3 -17 3 -27 12 -10 10 -22 18 -27 18 -5 0 -14 7 -20 16 -7 9
-16 16 -22 16 -12 0 -98 124 -91 131 3 3 1 11 -5 18 -28 33 -18 234 12 234 4
0 10 13 14 28 3 16 29 51 58 78 52 50 117 92 117 77 0 -4 4 -2 9 6 5 8 28 15
55 16 25 0 48 4 52 8 4 3 12 3 18 0 6 -4 30 -8 54 -9z"/>
<path d="M12218 4188 c-34 -33 -35 -48 -3 -71 20 -14 48 -18 145 -20 l121 -2
-1 -381 c0 -333 2 -382 15 -388 8 -3 15 -11 15 -19 0 -18 52 -20 76 -3 18 14
19 33 24 403 l5 388 124 2 c124 2 124 2 153 32 25 25 27 32 14 37 -8 3 -18 14
-21 24 -4 11 -12 17 -21 13 -7 -3 -14 -1 -14 3 0 5 -136 9 -302 9 l-303 0 -27
-27z"/>
<path d="M13030 4207 c0 -5 -4 -6 -9 -2 -5 3 -12 -4 -16 -15 -3 -11 -10 -20
-15 -20 -5 0 -9 -192 -9 -427 l-1 -427 31 -13 c23 -10 104 -13 315 -13 281 0
283 0 298 22 21 29 20 51 -2 71 -16 14 -53 17 -268 19 l-249 3 -3 139 c-3 107
0 141 10 147 7 5 92 9 189 9 152 0 178 2 190 17 8 9 13 24 11 35 -4 24 -32 77
-32 61 0 -10 -41 -13 -169 -13 -93 0 -176 3 -185 6 -14 5 -16 27 -16 139 0 94
4 136 13 143 7 6 102 10 254 10 221 0 243 2 260 19 22 22 19 55 -7 78 -17 16
-50 18 -305 19 -157 0 -285 -3 -285 -7z"/>
<path d="M13770 4208 c0 -4 -7 -5 -15 -2 -12 5 -15 -4 -16 -42 -1 -27 -1 -57
0 -66 1 -10 -3 -18 -8 -18 -8 0 -11 -116 -11 -373 l0 -374 23 -21 c26 -24 48
-27 78 -12 18 10 19 23 19 176 0 145 2 165 17 171 9 4 19 1 21 -5 5 -16 49
-15 55 1 4 9 8 9 15 -2 8 -11 10 -11 15 0 4 12 7 11 16 -1 8 -12 14 -12 28 -4
16 10 24 2 66 -63 26 -41 47 -76 47 -79 0 -3 8 -17 19 -32 10 -15 40 -60 66
-100 44 -68 49 -72 81 -70 20 1 34 7 34 15 0 7 7 13 15 13 8 0 15 9 15 20 0
11 -4 20 -8 20 -5 0 -14 10 -20 23 -6 12 -23 40 -37 62 -14 22 -28 48 -31 58
-4 9 -9 17 -13 17 -3 0 -18 21 -31 48 -14 26 -28 49 -31 52 -19 16 -29 51 -20
68 6 9 11 13 11 9 0 -5 16 8 35 28 36 39 75 110 75 138 0 9 5 19 10 22 12 7
13 77 2 90 -5 6 -15 29 -22 53 -7 23 -19 47 -27 53 -7 6 -13 20 -13 31 0 10
-4 17 -9 13 -5 -3 -16 3 -23 13 -7 11 -15 19 -18 19 -3 0 -25 11 -50 24 -25
13 -49 24 -55 25 -5 1 -14 2 -20 3 -34 6 -285 5 -285 -1z m247 -120 c7 -6 20
-8 29 -4 43 17 144 -94 120 -133 -3 -5 -2 -11 3 -13 6 -2 6 -20 0 -49 -11 -50
-63 -114 -86 -105 -7 3 -13 1 -13 -5 0 -7 -10 -9 -25 -5 -15 4 -25 2 -25 -4 0
-7 -31 -10 -87 -8 l-88 3 -3 159 c-2 113 1 162 9 167 17 10 152 8 166 -3z"/>
<path d="M14505 4200 l-30 -17 -3 -428 c-2 -388 -1 -430 14 -447 22 -23 56
-23 77 0 15 17 17 62 17 440 l0 421 -22 24 c-22 23 -24 23 -53 7z"/>
<path d="M15110 4209 c0 -6 -9 -9 -20 -6 -11 3 -38 -4 -61 -15 -23 -11 -47
-17 -55 -14 -8 3 -14 1 -14 -3 0 -5 -15 -18 -32 -29 -28 -17 -104 -90 -143
-135 -6 -7 -21 -37 -35 -67 -14 -30 -28 -56 -32 -58 -4 -2 -4 -10 -1 -18 3 -8
-3 -22 -13 -30 -14 -11 -15 -17 -6 -20 15 -7 17 -124 2 -124 -5 0 -10 -7 -10
-15 0 -8 7 -15 16 -15 11 0 14 -5 10 -17 -4 -9 -3 -19 1 -22 4 -3 22 -35 38
-70 17 -36 41 -77 55 -92 42 -46 50 -58 50 -69 0 -6 5 -8 10 -5 10 6 68 -29
81 -48 3 -5 8 -8 10 -6 8 5 79 -23 79 -31 0 -11 243 -8 251 3 4 5 18 10 33 10
14 0 26 3 26 8 0 5 7 9 15 9 8 0 15 5 15 10 0 6 4 10 10 10 13 0 44 25 103 83
50 49 117 163 117 198 0 10 4 19 8 19 4 0 6 16 4 35 -3 21 0 35 7 35 6 0 11
14 11 30 0 17 -5 30 -11 30 -7 0 -10 15 -7 39 2 22 0 37 -3 35 -4 -2 -10 11
-13 30 -4 18 -24 60 -45 92 -20 33 -36 65 -33 72 2 6 -3 12 -11 12 -7 0 -33
18 -57 40 -24 22 -46 40 -49 40 -3 0 -28 11 -56 25 -27 13 -58 25 -67 25 -10
0 -18 5 -18 10 0 6 -11 8 -25 4 -17 -4 -25 -2 -25 7 0 9 -3 10 -11 2 -7 -7
-23 -8 -47 -2 -48 11 -52 11 -52 -2z m120 -124 c24 -1 46 -7 48 -14 2 -6 8 -9
12 -6 21 13 128 -74 172 -140 35 -54 44 -94 42 -193 -3 -81 -31 -172 -55 -172
-5 0 -9 -6 -9 -13 0 -17 -54 -69 -63 -61 -4 4 -9 -1 -13 -10 -3 -9 -12 -16
-20 -16 -8 0 -14 -4 -14 -10 0 -5 -9 -10 -20 -10 -11 0 -20 -4 -20 -9 0 -14
-44 -22 -51 -9 -5 8 -12 6 -24 -5 -9 -10 -32 -17 -50 -17 -18 0 -41 7 -50 17
-12 12 -19 13 -24 4 -8 -13 -41 -5 -53 13 -4 6 -13 11 -20 12 -34 3 -38 5 -39
22 0 11 -2 13 -6 4 -8 -21 -92 73 -121 136 -33 73 -44 202 -17 202 14 0 15 3
5 15 -9 11 -7 25 13 67 26 59 111 152 131 145 7 -3 18 4 25 14 6 11 17 17 22
13 6 -4 15 -1 19 7 5 7 26 13 48 13 22 1 44 5 48 9 4 4 15 5 23 1 9 -4 36 -8
61 -9z"/>
<path d="M16475 4209 c-4 -5 -17 -6 -31 -3 -13 3 -24 2 -24 -4 0 -14 -40 -23
-40 -9 0 7 -7 4 -15 -7 -8 -11 -21 -16 -30 -13 -8 4 -15 1 -15 -6 0 -7 -17
-21 -37 -32 -40 -21 -103 -85 -142 -144 -14 -20 -28 -38 -31 -41 -4 -3 -10
-22 -14 -42 -4 -21 -10 -38 -14 -38 -11 0 -4 -185 8 -246 7 -32 28 -78 51
-113 21 -32 39 -64 39 -70 0 -6 7 -11 15 -11 8 0 15 -7 15 -15 0 -8 6 -15 13
-15 7 0 25 -12 41 -27 16 -15 38 -28 49 -28 11 -1 26 -10 33 -20 8 -11 14 -14
14 -7 0 9 6 9 25 0 14 -6 25 -15 25 -19 0 -4 8 -5 19 -2 10 3 21 1 24 -4 3 -5
43 -6 89 -2 45 4 86 5 91 2 5 -3 12 -1 16 5 4 7 16 13 26 15 11 2 35 13 54 25
19 11 38 19 43 16 4 -3 8 -2 8 3 0 4 16 19 35 32 42 29 47 62 10 79 -14 6 -25
16 -25 22 0 5 -9 10 -20 10 -11 0 -20 -5 -20 -11 0 -6 -6 -9 -14 -6 -8 3 -16
-2 -19 -15 -3 -11 -10 -17 -15 -14 -6 3 -12 1 -14 -4 -5 -17 -82 -40 -90 -27
-4 7 -12 5 -23 -6 -23 -23 -91 -23 -104 1 -9 14 -12 15 -20 3 -8 -12 -14 -12
-43 -1 -38 15 -118 63 -118 70 0 3 -18 26 -40 50 -37 41 -74 122 -69 152 1 7
-1 21 -6 31 -4 9 -4 30 -1 45 3 15 8 41 10 58 4 36 50 126 60 117 3 -3 6 0 6
9 0 20 77 91 90 83 6 -4 13 1 16 9 3 9 12 16 19 16 6 0 26 7 43 16 18 8 41 13
52 9 12 -4 27 -1 35 5 10 9 19 9 35 0 12 -6 28 -9 36 -6 21 8 117 -30 147 -58
14 -13 28 -21 31 -18 3 3 6 0 6 -6 0 -17 27 -15 34 3 3 8 13 15 21 15 13 0 15
7 11 33 -8 47 -17 68 -27 61 -5 -3 -12 1 -15 9 -3 8 -37 27 -77 43 -40 16 -75
32 -78 37 -4 5 -16 6 -28 2 -13 -4 -21 -2 -21 6 0 8 -3 9 -13 0 -8 -6 -16 -9
-18 -7 -11 9 -79 14 -84 5z"/>
<path d="M16946 4188 l-26 -27 0 -415 c0 -414 0 -415 22 -436 21 -19 34 -20
309 -20 315 0 319 1 319 59 0 50 -5 51 -277 51 l-254 0 3 148 3 147 184 3
c115 1 189 7 198 13 7 7 13 24 13 39 0 15 -6 32 -13 39 -9 6 -83 12 -198 13
l-184 3 -3 139 c-2 97 1 142 9 147 6 3 121 7 255 8 230 1 245 2 264 21 26 26
25 36 -7 68 l-28 27 -281 0 -281 0 -27 -27z"/>
<path d="M17715 4208 c-11 -6 -30 -22 -42 -35 l-23 -24 0 -401 0 -401 30 -28
c37 -35 54 -36 86 -4 l25 25 -1 307 c0 170 0 312 0 317 0 5 10 -4 22 -20 13
-16 27 -34 33 -40 11 -13 21 -25 137 -175 46 -59 90 -117 98 -129 8 -13 22
-30 31 -39 21 -22 119 -150 119 -155 0 -3 14 -20 30 -38 17 -18 30 -36 30 -41
0 -30 88 -48 98 -19 2 7 10 19 17 26 12 11 14 90 15 419 0 281 -3 408 -10 412
-6 4 -15 18 -20 31 -7 18 -17 24 -40 24 -18 0 -30 -5 -30 -13 0 -7 -9 -23 -21
-35 -20 -22 -20 -31 -17 -332 2 -171 1 -310 -2 -310 -8 0 -34 42 -41 65 -3 11
-11 19 -17 18 -7 -2 -14 8 -18 22 -3 13 -11 23 -17 22 -5 -1 -13 8 -16 21 -3
13 -9 22 -13 20 -8 -3 -188 225 -188 239 0 4 -9 14 -20 21 -11 7 -20 17 -20
22 0 6 -8 18 -17 28 -17 16 -70 81 -100 121 -7 9 -13 24 -13 34 0 10 -4 16 -9
12 -5 -3 -18 6 -29 20 -23 29 -21 28 -47 13z"/>
<path d="M18541 4211 c-1 -8 -7 -11 -17 -7 -8 3 -13 2 -9 -3 3 -5 -2 -16 -10
-24 -20 -21 -19 -33 5 -57 18 -18 35 -21 146 -23 l125 -2 -1 -377 c0 -222 3
-378 9 -378 5 0 12 -11 15 -24 5 -22 11 -24 46 -22 22 2 42 5 43 7 1 2 8 14
15 27 9 17 12 111 12 395 l-1 372 118 3 c65 1 130 8 145 15 34 14 37 46 7 67
-12 8 -26 20 -32 25 -6 6 -116 8 -308 5 -195 -3 -300 -2 -303 5 -3 6 -5 4 -5
-4z"/>
<path d="M19330 4207 c0 -5 -4 -6 -9 -2 -5 3 -12 -4 -16 -15 -3 -11 -10 -20
-15 -20 -4 0 -8 -189 -9 -419 l-2 -419 27 -21 c33 -26 56 -27 77 -3 14 16 17
44 17 180 0 140 2 162 16 162 8 0 12 -4 9 -10 -3 -5 3 -10 14 -10 10 0 22 6
24 13 4 9 8 8 16 -3 7 -10 11 -11 11 -2 0 6 7 12 15 12 8 0 15 -4 15 -10 0 -5
7 -10 15 -10 8 0 15 5 15 10 0 6 9 10 20 10 11 0 20 -4 20 -10 0 -8 36 -68 58
-95 20 -25 52 -88 52 -101 0 -8 4 -14 9 -14 5 0 29 -30 53 -68 46 -72 79 -89
112 -57 28 28 18 77 -24 126 -8 10 -26 39 -40 66 -14 26 -28 50 -31 53 -4 3
-21 29 -38 57 -29 48 -38 84 -19 84 27 0 125 144 120 176 -2 6 2 14 8 18 13 8
13 85 0 85 -5 0 -10 7 -10 16 0 21 -51 124 -62 124 -4 0 -8 7 -8 16 0 8 -4 12
-10 9 -6 -3 -10 4 -11 17 0 13 -3 18 -5 12 -5 -11 -82 20 -95 38 -3 5 -13 6
-22 2 -9 -3 -17 -2 -17 2 0 5 -63 9 -140 9 -77 0 -140 -4 -140 -8z m247 -119
c7 -5 16 -7 22 -4 13 8 62 -15 84 -39 40 -46 46 -76 38 -182 -2 -21 -53 -74
-67 -69 -7 3 -18 -2 -22 -11 -6 -10 -17 -14 -31 -10 -11 3 -21 1 -21 -4 0 -6
-37 -9 -87 -7 l-88 3 -3 159 c-2 103 1 162 8 166 17 10 154 9 167 -2z"/>
<path d="M20324 4195 c-12 -13 -45 -84 -74 -157 -29 -73 -70 -176 -91 -228
-21 -53 -45 -118 -55 -145 -9 -28 -22 -53 -30 -58 -7 -4 -11 -13 -8 -20 2 -7
-13 -58 -36 -114 -22 -55 -40 -105 -40 -112 0 -6 -6 -11 -12 -11 -9 0 -9 -3
-2 -8 6 -4 13 -15 17 -24 7 -19 48 -33 70 -25 18 7 60 97 99 211 l32 92 133
-4 c101 -3 133 -1 133 8 0 10 3 10 15 0 8 -6 18 -9 24 -6 8 6 87 -179 96 -225
2 -10 14 -33 27 -51 27 -38 60 -40 89 -5 19 22 25 57 11 57 -4 0 -20 35 -36
78 -15 42 -59 156 -97 252 -38 96 -69 183 -69 193 0 9 -4 17 -8 17 -6 0 -50
106 -58 140 0 3 -8 22 -17 42 -10 21 -17 42 -17 48 0 13 -30 62 -45 72 -17 13
-29 9 -51 -17z m46 -236 c0 -8 61 -167 86 -224 3 -6 -35 -10 -101 -11 -58 0
-105 0 -105 1 0 16 35 95 42 95 5 0 7 4 4 9 -3 5 1 25 9 45 8 20 22 52 30 72
13 31 35 40 35 13z"/>
<path d="M20860 4208 c0 -4 -7 -8 -15 -8 -8 0 -15 -7 -15 -15 0 -8 -4 -15 -10
-15 -7 0 -10 -145 -10 -416 0 -389 1 -417 18 -439 l19 -24 270 -1 271 -1 21
27 21 27 -22 39 c-13 22 -24 35 -26 29 -2 -7 -77 -11 -228 -11 l-224 0 0 374
c0 360 -6 446 -31 430 -5 -3 -9 -1 -9 4 0 5 -7 9 -15 9 -8 0 -15 -4 -15 -9z"/>
<path d="M10360 4203 c-39 -14 -40 -24 -40 -453 0 -365 2 -418 16 -438 16 -23
19 -23 182 -21 125 1 170 5 180 15 7 8 18 12 23 9 5 -4 9 -2 9 4 0 11 56 44
65 39 3 -2 21 28 40 66 19 39 41 73 47 78 10 6 10 8 1 8 -16 0 -17 32 -1 48 9
9 9 15 0 24 -16 16 -15 48 1 48 6 0 4 5 -5 11 -10 5 -18 18 -18 27 0 20 -46
91 -69 109 -61 45 -58 36 -31 87 14 25 27 46 30 46 3 0 3 28 0 63 -6 66 -38
142 -71 165 -10 7 -19 20 -19 28 0 8 -4 13 -9 9 -11 -6 -61 14 -61 25 0 8
-249 11 -270 3z m225 -116 c23 -2 66 -41 85 -76 17 -32 5 -84 -29 -120 -26
-27 -35 -30 -112 -35 l-84 -5 0 124 0 125 60 -5 c33 -3 69 -6 80 -8z m-94
-359 c0 -10 2 -10 6 0 6 14 83 17 83 2 0 -14 37 -12 44 3 3 8 9 7 20 -7 8 -10
20 -15 26 -11 13 8 78 -58 91 -93 16 -41 3 -108 -27 -147 -33 -43 -83 -73 -94
-55 -5 8 -9 7 -13 -5 -9 -23 -195 -18 -187 5 3 8 6 75 8 149 2 96 0 136 -9
141 -6 4 -8 13 -5 19 10 15 56 14 57 -1z"/>
<path d="M7525 3929 c-56 -28 -92 -65 -123 -129 -61 -125 -12 -277 112 -343
33 -17 58 -22 126 -22 75 0 91 3 131 27 91 53 132 125 131 228 -1 109 -53 193
-147 236 -66 31 -171 32 -230 3z"/>
<path d="M7075 3055 c-138 -37 -225 -101 -284 -207 -95 -171 -68 -367 70 -513
29 -30 50 -57 47 -60 -12 -13 -252 -95 -276 -95 -15 0 -67 12 -117 25 -259 72
-548 91 -745 48 -109 -23 -238 -74 -281 -110 -27 -23 -29 -29 -29 -101 1 -222
128 -483 342 -700 98 -99 146 -131 307 -208 393 -185 884 -119 1237 167 124
101 222 228 294 384 74 160 119 465 89 604 -9 41 -16 52 -43 65 -18 8 -59 18
-90 22 -32 4 -60 12 -62 19 -3 6 7 38 22 71 33 72 44 198 24 272 -43 161 -175
286 -338 321 -67 14 -104 13 -167 -4z"/>
<path d="M10332 2865 c-8 -18 -12 -132 -12 -375 0 -333 1 -351 19 -369 17 -17
24 -18 48 -9 l28 10 -3 367 c-2 358 -3 366 -23 384 -29 24 -44 21 -57 -8z"/>
<path d="M10546 2872 c-15 -17 -16 -55 -14 -388 l3 -369 29 -3 c30 -4 83 37
58 46 -15 5 -16 88 -2 97 6 4 10 63 10 146 0 86 -4 139 -10 139 -14 0 -12 37
3 43 9 4 9 8 0 14 -12 9 -14 83 -1 83 4 0 15 -12 25 -27 10 -16 20 -30 24 -33
13 -10 119 -145 119 -152 0 -4 10 -18 23 -31 50 -52 117 -142 117 -157 0 -6 5
-8 10 -5 6 3 10 2 10 -3 0 -6 16 -27 35 -48 19 -22 38 -49 41 -61 3 -13 12
-23 19 -23 6 0 16 -8 21 -18 7 -16 15 -17 42 -10 l32 9 0 368 c0 347 -1 369
-19 385 -23 21 -43 17 -55 -9 -5 -11 -10 -139 -12 -285 -1 -146 -4 -267 -8
-270 -3 -3 -33 31 -67 75 -33 44 -73 96 -89 115 -48 60 -154 196 -174 224 -11
15 -27 36 -35 46 -9 10 -29 35 -46 56 -59 72 -63 74 -89 46z"/>
<path d="M11253 2875 l-23 -16 0 -363 c0 -326 2 -365 17 -377 12 -10 51 -14
150 -14 73 0 133 3 133 6 0 4 15 12 33 20 34 13 97 71 97 89 0 5 5 10 10 10 6
0 10 9 10 20 0 11 3 20 8 20 4 0 8 10 9 23 1 12 4 33 6 47 2 14 1 30 -3 35 -3
6 -12 29 -20 52 -7 23 -21 51 -32 62 -10 11 -18 25 -18 31 0 6 -4 8 -10 5 -5
-3 -10 -1 -10 4 0 6 -7 11 -15 11 -22 0 -18 24 9 53 15 17 20 28 13 31 -8 3
-6 10 6 19 21 18 22 53 1 74 -13 13 -13 17 -2 24 7 5 9 9 3 9 -5 0 -20 17 -33
38 -13 20 -41 47 -62 60 -22 12 -40 26 -40 31 0 4 -48 9 -107 10 -85 1 -113
-2 -130 -14z m248 -126 c23 -25 28 -38 25 -70 -4 -43 -41 -93 -62 -85 -7 3
-14 0 -16 -5 -2 -6 -30 -11 -63 -12 l-60 -2 -3 103 -3 102 77 0 c72 0 77 -2
105 -31z m-12 -276 c6 -10 11 -12 11 -5 0 19 15 14 48 -15 42 -39 50 -60 47
-120 -3 -52 -28 -102 -52 -103 -6 0 -13 -5 -15 -11 -2 -6 -44 -11 -106 -12
l-102 -2 0 136 c0 75 3 139 7 142 3 4 39 7 79 7 59 0 75 -3 83 -17z"/>
<path d="M11821 2862 c-7 -15 -11 -146 -11 -372 0 -341 1 -351 21 -371 18 -18
23 -19 42 -6 22 14 22 17 25 373 2 271 5 360 15 366 9 6 7 8 -4 8 -9 0 -22 6
-28 14 -18 21 -48 15 -60 -12z"/>
<path d="M12306 2874 c-3 -8 -10 -13 -14 -10 -5 3 -20 -1 -35 -9 -14 -7 -28
-11 -30 -8 -14 13 -146 -127 -174 -184 -36 -75 -46 -206 -21 -282 27 -82 64
-137 121 -182 29 -23 55 -47 60 -55 4 -7 14 -11 22 -8 8 4 15 2 15 -2 0 -5 12
-10 26 -11 15 0 29 -5 33 -10 8 -11 174 -11 182 0 4 5 18 10 33 10 14 1 26 6
26 10 0 4 6 7 13 5 6 -2 22 7 35 20 12 12 27 20 32 17 6 -4 10 -2 10 4 0 6 17
27 38 48 21 21 53 70 71 108 18 39 37 78 42 87 12 24 11 138 -1 138 -5 0 -10
8 -10 18 0 32 -61 143 -99 180 -40 38 -134 102 -151 102 -5 0 -10 6 -10 13 0
8 -3 7 -10 -3 -8 -13 -10 -13 -15 1 -7 18 -108 24 -137 8 -12 -6 -18 -6 -18 1
0 16 -27 12 -34 -6z m167 -97 c10 -2 26 -11 37 -19 10 -9 21 -14 23 -11 9 9
47 -17 47 -33 0 -8 4 -13 9 -10 13 8 60 -50 84 -104 29 -64 28 -162 -3 -223
-13 -26 -27 -47 -32 -47 -4 0 -8 -5 -8 -10 0 -15 -28 -42 -75 -73 -29 -20 -41
-23 -47 -14 -5 8 -8 7 -8 -5 0 -10 -8 -18 -17 -18 -38 -2 -139 -2 -160 -1 -15
1 -23 8 -24 19 0 9 -3 12 -5 5 -7 -17 -34 -4 -34 16 0 14 -2 14 -10 1 -8 -13
-11 -11 -16 7 -3 12 -12 19 -18 17 -15 -6 -52 41 -84 104 -23 45 -29 77 -12
67 6 -3 10 -2 10 4 0 5 -5 11 -11 13 -16 5 -14 59 2 69 12 8 12 10 1 18 -27
17 59 161 95 161 7 0 13 7 13 16 0 10 6 14 15 10 9 -3 15 0 15 9 0 8 8 15 18
15 10 0 22 4 28 9 5 5 18 11 28 13 21 3 110 0 139 -5z"/>
<path d="M13877 2876 c-16 -12 -17 -37 -18 -280 -1 -223 2 -274 16 -316 19
-58 80 -123 138 -148 20 -9 37 -19 37 -22 0 -12 140 0 169 14 17 9 34 16 37
15 11 -3 114 102 114 115 0 6 9 29 20 51 18 35 20 59 20 212 0 103 -4 174 -10
178 -10 6 -7 81 4 92 3 3 6 21 6 40 0 23 -5 33 -15 33 -8 0 -15 4 -15 9 0 18
-33 21 -51 5 -18 -16 -19 -36 -19 -265 0 -205 -3 -256 -16 -289 -9 -22 -20
-40 -25 -40 -5 0 -9 -7 -9 -16 0 -8 -4 -13 -9 -10 -5 3 -12 -1 -15 -10 -4 -9
-13 -14 -21 -10 -9 3 -15 -1 -15 -10 0 -10 -6 -14 -15 -10 -8 3 -15 2 -15 -2
0 -5 -25 -7 -55 -5 -65 3 -102 25 -136 80 -23 36 -23 42 -20 288 2 230 1 255
-16 281 -21 33 -40 39 -66 20z"/>
<path d="M14506 2875 c-8 -8 -18 -15 -23 -15 -4 0 -7 -163 -5 -362 2 -357 2
-363 23 -381 19 -15 25 -16 43 -4 19 13 21 26 26 173 l5 159 155 5 c125 4 160
8 179 22 l25 18 -24 25 c-22 24 -27 25 -179 27 l-156 3 -3 118 -3 117 216 0
c145 0 215 3 215 11 0 5 5 7 10 4 6 -4 10 8 10 29 0 70 14 66 -255 66 -203 0
-246 -2 -259 -15z"/>
<path d="M15139 2877 c-9 -7 -21 -21 -27 -33 -14 -27 -16 -678 -2 -705 19 -34
45 -41 74 -18 l27 21 -2 230 c0 126 1 231 3 233 2 2 60 -110 130 -249 156
-310 149 -306 233 -146 30 58 88 171 128 252 39 81 74 148 77 148 3 0 4 -100
2 -221 -2 -122 -1 -232 2 -244 3 -12 16 -26 30 -33 19 -8 29 -7 55 11 l31 22
0 343 0 344 -30 29 c-24 25 -33 28 -49 19 -12 -6 -79 -128 -166 -303 -81 -160
-150 -296 -155 -301 -5 -5 -74 123 -157 289 -81 164 -157 304 -168 311 -16 10
-24 10 -36 1z"/>
<path d="M16134 2873 c-5 -8 -19 -15 -31 -16 -13 -1 -23 -7 -23 -14 0 -7 -9
-18 -20 -25 -11 -7 -20 -18 -20 -25 0 -6 -5 -13 -12 -15 -16 -6 -25 -178 -9
-178 6 0 11 -7 11 -15 0 -8 5 -15 10 -15 6 0 10 -5 10 -11 0 -12 30 -44 30
-32 0 4 4 3 8 -2 11 -16 60 -35 87 -35 16 0 25 -6 25 -16 0 -13 3 -14 14 -5
11 10 21 6 49 -18 44 -39 67 -89 46 -102 -11 -7 -11 -11 -1 -17 9 -6 10 -16 3
-34 -13 -34 -69 -91 -81 -83 -6 3 -10 2 -10 -3 0 -4 -19 -7 -42 -6 -24 2 -49
3 -55 3 -7 1 -13 8 -13 17 0 8 -5 12 -11 8 -6 -3 -24 8 -39 25 -32 35 -51 39
-74 15 -21 -21 -20 -46 4 -77 11 -14 20 -30 20 -37 0 -6 4 -9 9 -5 8 4 76 -29
91 -45 7 -7 130 -6 130 1 0 4 11 10 25 13 14 4 43 22 64 41 21 19 41 31 45 27
4 -4 7 -2 5 3 -1 6 5 35 14 65 23 76 26 103 14 118 -5 7 -7 15 -4 19 8 7 -43
103 -55 103 -4 0 -8 9 -8 21 0 11 -4 17 -10 14 -12 -7 -70 22 -70 35 0 5 -7 7
-15 4 -8 -4 -15 -1 -15 6 0 10 -3 10 -15 0 -13 -10 -19 -10 -33 3 -9 8 -26 17
-37 19 -26 4 -57 85 -37 97 7 4 12 12 11 17 -7 39 51 71 118 65 16 -1 63 -46
63 -59 0 -6 7 -9 15 -6 9 4 15 1 15 -7 0 -7 10 -3 25 11 14 13 25 33 25 44 0
21 -84 106 -106 106 -8 0 -14 5 -14 10 0 6 -5 10 -11 10 -5 0 -7 -4 -4 -10 3
-5 2 -10 -4 -10 -5 0 -12 4 -15 9 -9 14 -82 10 -92 -6z"/>
<path d="M13183 2408 c-20 -26 -21 -46 -4 -62 14 -13 43 -16 147 -16 136 0
154 5 154 45 0 40 -17 45 -156 45 -93 0 -134 -4 -141 -12z"/>
</g>
</svg>
